<svg xmlns="http://www.w3.org/2000/svg" width="32" height="32" viewBox="0 0 32 32"><title>clover</title><g stroke-width="2" fill="#ffffff" class="nc-icon-wrapper"><path fill="none" stroke="#ffffff" stroke-linecap="square" stroke-miterlimit="10" d="M25.9 21.66c1.17-1.17 0.77-3.16-0.83-4.17l-2.87-1.49 2.87-1.49c1.61-1.01 2.01-3 0.83-4.17-1.26-1.26-2.83-1.41-2.83-1.41s-0.15-1.57-1.41-2.83c-1.17-1.17-3.16-0.77-4.17 0.83l-1.49 2.87-1.49-2.87c-1.01-1.61-3-2.01-4.17-0.83-1.26 1.26-1.41 2.83-1.41 2.83s-1.57 0.15-2.83 1.41c-1.17 1.17-0.77 3.16 0.83 4.17l2.87 1.49-2.87 1.49c-1.61 1.01-2.01 3-0.83 4.17 1.26 1.26 2.83 1.41 2.83 1.41s0.15 1.57 1.41 2.83c1.17 1.17 3.16 0.77 4.17-0.83l1.49-2.87 1.49 2.87c1.01 1.61 3 2.01 4.17 0.83 1.26-1.26 1.41-2.83 1.41-2.83s1.57-0.15 2.83-1.41z" stroke-linejoin="miter"></path></g></svg>