<svg xmlns="http://www.w3.org/2000/svg" width="375" viewBox="0 0 375 375" height="375" version="1.0"><defs><clipPath id="a"><path d="M 124 15.386719 L 250 15.386719 L 250 259 L 124 259 Z M 124 15.386719"/></clipPath><clipPath id="b"><path d="M 157 276 L 222 276 L 222 359.636719 L 157 359.636719 Z M 157 276"/></clipPath></defs><path d="M 116 131.03125 C 88.566406 149.804688 74.636719 184.710938 80.070312 224.300781 C 80.167969 224.941406 80.375 225.546875 80.6875 226.113281 C 81.003906 226.679688 81.410156 227.171875 81.902344 227.59375 C 82.398438 228.011719 82.949219 228.332031 83.558594 228.554688 C 84.171875 228.773438 84.800781 228.882812 85.449219 228.875 L 121.703125 228.28125 C 117.621094 212.410156 115.101562 196.292969 114.140625 179.933594 C 113.183594 163.570312 113.800781 147.273438 116 131.03125 Z M 116 131.03125"/><path d="M 254.453125 225.914062 L 290.867188 225.269531 C 291.527344 225.261719 292.164062 225.132812 292.777344 224.890625 C 293.390625 224.644531 293.941406 224.300781 294.425781 223.851562 C 294.914062 223.40625 295.304688 222.890625 295.597656 222.296875 C 295.894531 221.707031 296.074219 221.085938 296.140625 220.429688 C 300.226562 180.464844 284.953125 145.878906 256.496094 128.234375 C 259.285156 144.429688 260.503906 160.742188 260.160156 177.171875 C 259.816406 193.601562 257.914062 209.851562 254.453125 225.914062 Z M 254.453125 225.914062"/><g clip-path="url(#a)"><path d="M 184.527344 14.847656 C 183.757812 14.832031 183.019531 14.976562 182.3125 15.289062 C 181.609375 15.597656 181.003906 16.042969 180.492188 16.621094 C 83.511719 128.234375 141.335938 253.886719 141.925781 255.230469 C 142.152344 255.691406 142.4375 256.109375 142.785156 256.492188 C 143.128906 256.871094 143.523438 257.191406 143.960938 257.460938 C 144.398438 257.726562 144.867188 257.925781 145.363281 258.058594 C 145.859375 258.191406 146.363281 258.253906 146.875 258.242188 L 230.519531 256.84375 C 231.242188 256.832031 231.933594 256.683594 232.59375 256.394531 C 233.257812 256.105469 233.839844 255.699219 234.335938 255.175781 C 234.792969 254.703125 235.152344 254.167969 235.414062 253.5625 C 235.949219 252.324219 288.449219 124.683594 188.507812 16.566406 C 187.996094 16.015625 187.390625 15.589844 186.699219 15.289062 C 186.007812 14.988281 185.28125 14.84375 184.527344 14.847656 Z M 202.546875 179.65625 C 202.058594 180.164062 201.542969 180.644531 201.003906 181.097656 C 200.46875 181.554688 199.910156 181.980469 199.328125 182.382812 C 198.75 182.78125 198.152344 183.152344 197.535156 183.492188 C 196.917969 183.835938 196.289062 184.144531 195.640625 184.425781 C 194.996094 184.703125 194.335938 184.953125 193.664062 185.167969 C 192.992188 185.382812 192.3125 185.5625 191.625 185.710938 C 190.9375 185.859375 190.242188 185.972656 189.542969 186.054688 C 188.84375 186.132812 188.140625 186.179688 187.4375 186.1875 C 186.730469 186.199219 186.027344 186.175781 185.328125 186.117188 C 184.625 186.058594 183.925781 185.96875 183.234375 185.839844 C 182.539062 185.714844 181.855469 185.554688 181.179688 185.359375 C 180.5 185.164062 179.835938 184.9375 179.179688 184.679688 C 178.523438 184.421875 177.882812 184.128906 177.257812 183.808594 C 176.632812 183.484375 176.023438 183.132812 175.429688 182.75 C 174.839844 182.367188 174.269531 181.957031 173.714844 181.519531 C 173.164062 181.082031 172.636719 180.617188 172.128906 180.125 C 171.625 179.636719 171.144531 179.121094 170.6875 178.585938 C 170.234375 178.046875 169.804688 177.488281 169.40625 176.910156 C 169.003906 176.328125 168.632812 175.730469 168.289062 175.117188 C 167.949219 174.5 167.636719 173.867188 167.359375 173.222656 C 167.078125 172.574219 166.832031 171.917969 166.617188 171.246094 C 166.402344 170.574219 166.21875 169.894531 166.070312 169.207031 C 165.921875 168.519531 165.808594 167.824219 165.726562 167.125 C 165.648438 166.425781 165.601562 165.722656 165.589844 165.019531 C 165.578125 164.3125 165.601562 163.609375 165.660156 162.910156 C 165.71875 162.207031 165.8125 161.507812 165.9375 160.816406 C 166.0625 160.121094 166.222656 159.4375 166.417969 158.761719 C 166.609375 158.082031 166.835938 157.417969 167.097656 156.761719 C 167.355469 156.105469 167.644531 155.464844 167.96875 154.839844 C 168.289062 154.210938 168.640625 153.605469 169.023438 153.011719 C 169.40625 152.417969 169.816406 151.847656 170.253906 151.296875 C 170.691406 150.746094 171.15625 150.214844 171.648438 149.710938 C 172.136719 149.203125 172.648438 148.722656 173.1875 148.265625 C 173.726562 147.8125 174.28125 147.382812 174.863281 146.980469 C 175.441406 146.582031 176.039062 146.210938 176.65625 145.867188 C 177.269531 145.527344 177.902344 145.214844 178.546875 144.933594 C 179.195312 144.65625 179.851562 144.40625 180.523438 144.191406 C 181.195312 143.976562 181.875 143.792969 182.5625 143.644531 C 183.25 143.496094 183.945312 143.382812 184.644531 143.300781 C 185.34375 143.222656 186.046875 143.175781 186.75 143.164062 C 187.457031 143.152344 188.160156 143.175781 188.863281 143.230469 C 189.5625 143.289062 190.261719 143.382812 190.953125 143.507812 C 191.648438 143.632812 192.332031 143.792969 193.011719 143.988281 C 193.6875 144.179688 194.355469 144.40625 195.007812 144.664062 C 195.664062 144.925781 196.304688 145.214844 196.933594 145.535156 C 197.558594 145.859375 198.167969 146.210938 198.761719 146.589844 C 199.351562 146.972656 199.925781 147.382812 200.476562 147.820312 C 201.027344 148.257812 201.558594 148.722656 202.0625 149.210938 C 202.570312 149.703125 203.050781 150.214844 203.507812 150.753906 C 203.964844 151.292969 204.394531 151.851562 204.792969 152.429688 C 205.195312 153.011719 205.566406 153.609375 205.910156 154.226562 C 206.253906 154.839844 206.566406 155.472656 206.84375 156.121094 C 207.125 156.769531 207.375 157.425781 207.589844 158.097656 C 207.804688 158.769531 207.988281 159.449219 208.136719 160.140625 C 208.285156 160.828125 208.398438 161.523438 208.480469 162.226562 C 208.558594 162.925781 208.605469 163.628906 208.617188 164.335938 C 208.628906 165.039062 208.605469 165.742188 208.546875 166.445312 C 208.488281 167.148438 208.394531 167.847656 208.269531 168.542969 C 208.144531 169.234375 207.980469 169.921875 207.789062 170.597656 C 207.59375 171.277344 207.367188 171.945312 207.105469 172.597656 C 206.847656 173.253906 206.554688 173.898438 206.234375 174.523438 C 205.910156 175.152344 205.558594 175.761719 205.175781 176.351562 C 204.792969 176.945312 204.382812 177.515625 203.941406 178.070312 C 203.503906 178.621094 203.039062 179.152344 202.546875 179.65625 Z M 202.546875 179.65625"/></g><g clip-path="url(#b)"><path fill="#7C4DFF" d="M 188.992188 276.90625 C 187.9375 276.929688 186.882812 277 185.832031 277.125 C 184.785156 277.25 183.742188 277.425781 182.710938 277.652344 C 181.679688 277.878906 180.660156 278.152344 179.65625 278.480469 C 178.648438 278.804688 177.664062 279.179688 176.695312 279.601562 C 175.726562 280.027344 174.78125 280.496094 173.859375 281.011719 C 172.9375 281.527344 172.042969 282.085938 171.171875 282.691406 C 170.304688 283.292969 169.46875 283.9375 168.664062 284.621094 C 167.863281 285.308594 167.09375 286.03125 166.359375 286.792969 C 165.625 287.554688 164.929688 288.347656 164.277344 289.175781 C 163.621094 290.003906 163.007812 290.863281 162.4375 291.753906 C 161.863281 292.644531 161.339844 293.558594 160.855469 294.5 C 160.375 295.4375 159.941406 296.402344 159.554688 297.382812 C 159.167969 298.367188 158.828125 299.367188 158.539062 300.382812 C 158.25 301.398438 158.011719 302.429688 157.824219 303.46875 C 157.636719 304.507812 157.5 305.554688 157.414062 306.609375 C 157.328125 307.660156 157.292969 308.714844 157.3125 309.773438 C 157.578125 326.179688 183.398438 355.222656 186.355469 358.503906 C 186.605469 358.785156 186.878906 359.039062 187.179688 359.261719 C 187.480469 359.484375 187.800781 359.675781 188.144531 359.832031 C 188.484375 359.988281 188.835938 360.105469 189.203125 360.1875 C 189.570312 360.269531 189.9375 360.316406 190.3125 360.320312 C 190.6875 360.324219 191.058594 360.292969 191.425781 360.21875 C 191.796875 360.148438 192.152344 360.035156 192.496094 359.890625 C 192.839844 359.742188 193.167969 359.5625 193.472656 359.347656 C 193.78125 359.132812 194.0625 358.886719 194.316406 358.613281 L 194.53125 358.289062 C 197.382812 354.957031 222.179688 324.996094 221.910156 308.644531 C 221.890625 307.585938 221.820312 306.527344 221.699219 305.476562 C 221.574219 304.425781 221.402344 303.382812 221.175781 302.347656 C 220.949219 301.3125 220.675781 300.292969 220.347656 299.285156 C 220.023438 298.277344 219.648438 297.285156 219.226562 296.316406 C 218.800781 295.34375 218.332031 294.398438 217.816406 293.472656 C 217.300781 292.546875 216.742188 291.652344 216.136719 290.78125 C 215.53125 289.910156 214.886719 289.074219 214.199219 288.265625 C 213.511719 287.460938 212.789062 286.691406 212.027344 285.957031 C 211.265625 285.21875 210.46875 284.523438 209.636719 283.867188 C 208.804688 283.210938 207.945312 282.597656 207.054688 282.023438 C 206.164062 281.453125 205.246094 280.925781 204.300781 280.445312 C 203.359375 279.960938 202.394531 279.527344 201.410156 279.140625 C 200.421875 278.753906 199.421875 278.414062 198.402344 278.125 C 197.382812 277.835938 196.351562 277.597656 195.3125 277.410156 C 194.269531 277.226562 193.21875 277.089844 192.164062 277.003906 C 191.109375 276.921875 190.050781 276.886719 188.992188 276.90625 Z M 188.992188 276.90625"/></g></svg>